# xmcd
#
# Track frame offsets:
#	150
#	13213
#	25650
#	38302
#	51891
#	62362
#	75617
#	89451
#	103158
#	114525
#	126994
#	138799
#	149963
#	162525
#	173843
#	185107
#	196525
#	203931
#	216115
#	225690
#	233076
#
# Disc length: 3228 seconds
#
# Revision: 1
# Processed by: cddbd v1.5.2PL0 Copyright (c) Steve Scherf et al.
# Submitted via: audiograbber 1.83.01
#
DISCID=260c9a15
DTITLE=Various Artist - Ember House Of Hits
DYEAR=2000
DGENRE=Oldies
TTITLE0=Faye Adams - Shake A Hand
TTITLE1=Joe Morris Featuring Al Savage - I Had A Notion
TTITLE2=Faye Adams - I'll Be True
TTITLE3=Faye Adams - Hurts Me To My Heart
TTITLE4=Nutmegs - A Story Untold
TTITLE5=Turbans - When You Dance
TTITLE6=Nutmegs - Ship Of Love
TTITLE7=Five Satins - In The Still Of The Nite
TTITLE8=Mello Kings - Tonight Tonight
TTITLE9=Five Satins - To The Aisle
TTITLE10=Billy Myles - The Joker
TTITLE11=Lee Allen - Walking With Mr. Lee
TTITLE12=Silhouettes - Get A Job
TTITLE13=Honeycones - Op
TTITLE14=Lee Allen - Tic Tac
TTITLE15=Five Satins - Shadows
TTITLE16=Maurice Williams and The Zodiacs - Stay
TTITLE17=Five Satins - I'll Be Seeing You
TTITLE18=Maurice Williams and Zodiacs - I Remember
TTITLE19=Maurice Williams and Zodiacs - Come Along
TTITLE20=Vito and Salutations - Unchained Melody
EXTD=
EXTT0=
EXTT1=
EXTT2=
EXTT3=
EXTT4=
EXTT5=
EXTT6=
EXTT7=
EXTT8=
EXTT9=
EXTT10=
EXTT11=
EXTT12=
EXTT13=
EXTT14=
EXTT15=
EXTT16=
EXTT17=
EXTT18=
EXTT19=
EXTT20=
PLAYORDER=
